<svg xmlns="http://www.w3.org/2000/svg" xmlns:xlink="http://www.w3.org/1999/xlink" width="500" height="500" viewBox="0 0 500 500">
  <defs>
    <clipPath id="clip-ig_border">
      <rect width="500" height="500"/>
    </clipPath>
  </defs>
  <g id="ig_border" data-name="ig border" clip-path="url(#clip-ig_border)">
    <rect width="500" height="500" fill="#fff"/>
    <path id="instagram" d="M498.168,178.735c-1.9-40.054-11.043-75.533-40.379-104.764-29.225-29.231-64.7-38.38-104.741-40.388-41.272-2.343-164.975-2.343-206.247,0-39.933,1.9-75.4,11.045-104.741,40.277S3.69,138.569,1.682,178.623c-2.342,41.281-2.342,165.012,0,206.293,1.9,40.054,11.043,75.533,40.379,104.764s64.7,38.38,104.741,40.388c41.272,2.343,164.975,2.343,206.247,0,40.045-1.9,75.516-11.045,104.741-40.388,29.225-29.231,38.371-64.71,40.379-104.764,2.342-41.281,2.342-164.9,0-206.181ZM444.85,429.209a84.368,84.368,0,0,1-47.518,47.529c-32.906,13.054-110.987,10.041-147.351,10.041s-114.557,2.9-147.351-10.041a84.368,84.368,0,0,1-47.518-47.529C42.061,396.3,45.073,318.2,45.073,281.825s-2.9-114.582,10.039-147.384A84.368,84.368,0,0,1,102.63,86.913c32.906-13.054,110.987-10.041,147.351-10.041s114.557-2.9,147.351,10.041a84.368,84.368,0,0,1,47.518,47.529c13.051,32.913,10.039,111.012,10.039,147.384S457.9,396.407,444.85,429.209Z" transform="translate(0.075 -31.825)"/>
  </g>
</svg>
